<svg width="228" height="40" viewBox="0 0 228 40" fill="none" xmlns="http://www.w3.org/2000/svg">
<g clip-path="url(#clip0_6260_2552)">
<path d="M55.4976 12.6392H62.0683C63.7659 12.6392 65.0146 13.0928 65.8049 13.8831C66.4829 14.5611 66.8244 15.3562 66.8244 16.3757V16.4879C66.8244 18.1855 65.9171 19.0928 64.8976 19.6587C66.5951 20.3367 67.6146 21.3562 67.6146 23.2831V23.3953C67.6146 26.1123 65.4634 27.4733 62.2927 27.4733H55.4976V12.6343M61.3902 18.6392C62.8634 18.6392 63.6537 18.0733 63.6537 17.0538V16.9416C63.6537 16.0343 62.9756 15.4684 61.6146 15.4684H58.5561V18.6392H61.3854H61.3902ZM62.2927 24.5318C63.6537 24.5318 64.4439 24.0782 64.4439 22.9465C64.4439 21.927 63.7658 21.3611 62.1805 21.3611H58.5561V24.5318H62.2927Z" fill="#ffffff"/>
<path d="M70.1074 12.6393H73.283V24.4198H80.4147V27.4734H70.1074V12.6393Z" fill="#ffffff"/>
<path d="M87.8927 12.5271H90.7219L96.839 27.4783H93.5561L92.3122 24.0783H86.1951L84.9512 27.4783H81.7805L87.8975 12.5271M91.1756 21.2442L89.2487 16.3759L87.3219 21.2442H91.1707H91.1756Z" fill="#ffffff"/>
<path d="M97.2925 20.0002C97.2925 15.8099 100.351 12.2977 104.654 12.2977C107.371 12.2977 108.956 13.3172 110.317 14.6782L108.278 17.0587C107.258 16.0392 106.127 15.3611 104.654 15.3611C102.273 15.3611 100.575 17.4002 100.575 20.005C100.575 22.6099 102.161 24.6489 104.654 24.6489C106.239 24.6489 107.258 23.9709 108.39 22.9514L110.429 25.1026C108.956 26.688 107.258 27.7075 104.541 27.7075C100.351 27.7075 97.2925 24.3075 97.2925 20.005" fill="#ffffff"/>
<path d="M112.468 12.6393H115.639V19.0929L121.415 12.6393H125.268L119.381 18.8686L125.493 27.4734H121.756L117.341 21.132L115.639 22.9466V27.4734H112.468V12.6393Z" fill="#ffffff"/>
<path d="M138.068 25.4344C136.937 26.3417 135.688 26.9076 134.22 26.9076C131.727 26.9076 129.8 25.4344 129.8 22.9417C129.8 21.2441 130.707 19.9954 132.293 19.2051C131.727 18.2978 131.386 17.3954 131.386 16.488V16.3759C131.386 14.5661 132.859 12.7515 135.351 12.7515C137.615 12.7515 139.088 14.3368 139.088 16.2637C139.088 18.1905 137.956 19.21 136.371 19.8881L138.068 21.6978C138.522 21.0198 138.976 20.2246 139.312 19.3173L141.464 20.5612C141.01 21.5807 140.444 22.6002 139.766 23.5076L141.693 25.4344L139.542 27.0198L138.068 25.4344ZM136.483 23.7368L133.878 21.0198C133.083 21.4734 132.747 22.1515 132.747 22.8295C132.747 23.849 133.425 24.5271 134.556 24.5271C135.234 24.5271 135.8 24.1856 136.483 23.732V23.7368ZM136.595 16.488C136.595 15.6929 136.029 15.1271 135.351 15.1271C134.556 15.1271 134.107 15.6929 134.107 16.6002C134.107 17.1661 134.332 17.6198 134.786 18.2978C136.029 17.8441 136.595 17.2783 136.595 16.488Z" fill="#ffffff"/>
<path d="M144.634 12.6393H148.146L151.883 23.0588L155.619 12.6393H158.907L153.244 27.5905H150.41L144.634 12.6393Z" fill="#ffffff"/>
<path d="M160.834 12.6393H171.59V15.4685H163.888V18.5271H170.688V21.3612H163.888V24.532H171.708V27.4734H160.834V12.6393Z" fill="#ffffff"/>
<path d="M179.293 12.5271H182.239L188.356 27.4783H185.073L183.712 24.0783H177.707L176.346 27.4783H173.176L179.293 12.5271ZM182.581 21.2442L180.771 16.3759L178.844 21.2442H182.581Z" fill="#ffffff"/>
<path d="M191.751 15.5807H187.336V12.6393H199.229V15.5807H194.81V27.4734H191.751V15.5807Z" fill="#ffffff"/>
<path d="M200.019 20.0002C200.019 15.8099 203.078 12.2977 207.38 12.2977C210.097 12.2977 211.683 13.3172 213.044 14.6782L211.005 17.0587C209.985 16.0392 208.853 15.3611 207.38 15.3611C205 15.3611 203.302 17.4002 203.302 20.005C203.302 22.6099 205 24.6489 207.38 24.6489C209.078 24.6489 209.985 23.9709 211.117 22.9514L213.156 25.1026C211.683 26.688 210.097 27.7075 207.268 27.7075C203.078 27.7075 200.019 24.3075 200.019 20.005" fill="#ffffff"/>
<path d="M215.312 12.6393H218.371V18.4149H224.146V12.6393H227.317V27.4734H224.146V21.4734H218.371V27.4734H215.312V12.6393Z" fill="#ffffff"/>
<path d="M0 2.31707C0 1.09756 0.97561 0 2.31707 0H42.0732C43.4146 0 44.3902 1.09756 44.3902 2.31707V37.6829C44.3902 39.0244 43.4146 40 42.0732 40H2.31707C0.97561 40 0 39.0244 0 37.6829V2.31707Z" fill="#1265E1"/>
<path d="M12.8146 17.1658H22.5122C23.2195 17.1658 23.7902 17.8244 23.7902 18.639C23.7902 19.4536 23.2146 20.1122 22.5122 20.1122H14.8829L22.3219 33.161H30.8585L40.8585 18.5268H34.639L27.078 29.3805C24.2049 24.0732 23.9366 23.5756 23.9073 23.5317H26.2244C28.9707 23.5317 30.5707 21.6097 30.7171 19.2585C30.8097 17.9024 30.2683 16.6927 29.3268 15.9122C30.2683 15.1268 30.8049 13.9219 30.7171 12.5658C30.5658 10.2146 28.9707 8.29266 26.2244 8.29266H6.70731V23.5317H14.6341L12.8049 20.1171V17.1902M12.8146 14.1853V11.239H22.5122C23.2195 11.239 23.7902 11.8975 23.7902 12.7122C23.7902 13.5268 23.2146 14.1853 22.5122 14.1853H12.8146Z" fill="white"/>
<path d="M47.8047 40.0049C48.8925 40.0049 49.756 39.1414 49.756 38.0488C49.756 36.9561 48.8925 36.0975 47.8047 36.0975C46.7169 36.0975 45.8584 36.9658 45.8584 38.0488C45.8584 39.1317 46.7121 40.0049 47.8047 40.0049ZM47.8047 39.7122C46.9121 39.7122 46.1413 38.9756 46.1413 38.0536C46.1413 37.1317 46.9072 36.4049 47.8047 36.4049C48.7023 36.4049 49.4535 37.1366 49.4535 38.0536C49.4535 38.9707 48.6974 39.7122 47.8047 39.7122ZM48.0925 38.1219C48.4779 38.1122 48.7657 37.9561 48.7657 37.5366C48.7657 37.0829 48.395 36.9805 48.0096 36.9805H47.0779V39.117H47.3755V38.1268H47.7364L48.3755 39.117H48.7316L48.0877 38.1268L48.0925 38.1219ZM47.3755 37.8195V37.2634H47.9462C48.1755 37.2634 48.4682 37.3024 48.4682 37.5219C48.4682 37.8634 48.0047 37.8146 47.7364 37.8146H47.3755V37.8195Z" fill="#1265E1"/>
</g>
<defs>
<clipPath id="clip0_6260_2552">
<rect width="227.317" height="40" fill="white"/>
</clipPath>
</defs>
</svg>
